<?xml version="1.0" encoding="utf-8"?>
<!-- Generator: Adobe Illustrator 19.1.1, SVG Export Plug-In . SVG Version: 6.00 Build 0)  -->
<svg version="1.1" id="Laag_1" xmlns="http://www.w3.org/2000/svg" xmlns:xlink="http://www.w3.org/1999/xlink" x="0px" y="0px"
	 viewBox="0 0 77.8 77.8" style="enable-background:new 0 0 77.8 77.8;" xml:space="preserve">
<style type="text/css">
	.st0{fill:#FFFFFF;}
</style>
<g>
	<path class="st0" d="M64.6,8.4c2.4,3.3,3.5,7.2,3.5,11.8c0,4.7-1.2,8.5-3.6,11.4c-1.3,1.6-3.3,3.1-5.9,4.4c4,1.4,6.9,3.7,9,6.8
		c2,3.1,3,6.9,3,11.3c0,4.6-1.2,8.7-3.4,12.4c-1.5,2.4-3.3,4.4-5.5,6.1c-2.5,1.9-5.4,3.2-8.7,3.9s-7,1-11,1H7.1V0.2h37.4
		C54,0.3,60.7,3.1,64.6,8.4z M22.6,13.6v17.1h18.8c3.4,0,6.1-0.6,8.2-1.9c2.1-1.3,3.1-3.5,3.1-6.8c0-3.6-1.4-6-4.2-7.1
		c-2.4-0.8-5.5-1.2-9.1-1.2L22.6,13.6L22.6,13.6z M22.6,43.5v20.6h18.8c3.4,0,6-0.5,7.8-1.4c3.4-1.7,5.1-4.9,5.1-9.7
		c0-4-1.6-6.8-4.9-8.3c-1.8-0.8-4.4-1.3-7.7-1.3H22.6z"/>
</g>
</svg>
