<?xml version="1.0" encoding="utf-8"?>
<!-- Generator: Adobe Illustrator 19.1.1, SVG Export Plug-In . SVG Version: 6.00 Build 0)  -->
<svg version="1.1" id="Laag_1" xmlns="http://www.w3.org/2000/svg" xmlns:xlink="http://www.w3.org/1999/xlink" x="0px" y="0px"
	 viewBox="0 0 77.8 77.8" style="enable-background:new 0 0 77.8 77.8;" xml:space="preserve">
<style type="text/css">
	.st0{fill:#FFFFFF;}
</style>
<g>
	<g>
		<path class="st0" d="M74.4,0.3H3.4c-1.5,0-2.7,1.2-2.7,2.8v71.7c0,1.5,1.2,2.8,2.7,2.8h71.1c1.5,0,2.7-1.2,2.7-2.8V3.1
			C77.2,1.5,76,0.3,74.4,0.3z M71.7,72H6.1V5.8h65.6V72z"/>
		<path class="st0" d="M21.9,57c1.2,0,2.3-0.8,2.8-2l3.4-8.7h12.6l3.4,8.7c0.5,1.2,1.5,1.9,2.8,1.9c1.7,0,3-1.3,3-2.9
			c0-0.3-0.1-0.8-0.2-1.2L37.1,21.2c-0.5-1.2-1.5-1.9-2.8-1.9c-1.2,0-2.2,0.7-2.7,1.9L19.2,52.9C19,53.4,19,54,19,54.1
			C19,55.7,20.3,57,21.9,57z M34.4,29.6l4.3,11.3h-8.6L34.4,29.6z"/>
		<path class="st0" d="M54.9,28c1.9,0,3.1-1.3,3.1-3.1c0-2.1-1.1-3.2-3.1-3.2c-2,0-3.1,1.2-3.1,3.2C51.8,26.8,53.1,28,54.9,28z"/>
		<path class="st0" d="M54.9,30.5c-1.6,0-2.8,1.2-2.8,2.8v20.9c0,1.6,1.2,2.8,2.8,2.8s2.8-1.2,2.8-2.8V33.3
			C57.7,31.8,56.5,30.5,54.9,30.5z"/>
	</g>
</g>
</svg>
