<?xml version="1.0" encoding="utf-8"?>
<!-- Generator: Adobe Illustrator 19.1.1, SVG Export Plug-In . SVG Version: 6.00 Build 0)  -->
<svg version="1.1" id="Laag_1" xmlns="http://www.w3.org/2000/svg" xmlns:xlink="http://www.w3.org/1999/xlink" x="0px" y="0px"
	 viewBox="0 0 77.8 77.8" style="enable-background:new 0 0 77.8 77.8;" xml:space="preserve">
<style type="text/css">
	.st0{fill:#FFFFFF;}
</style>
<g id="Layer_1_1_">
	<g>
		<path class="st0" d="M16.9,10.2h12.9v36.3c0,16.3-7.8,22.1-20.3,22.1c-3.1,0-7-0.5-9.5-1.4l1.4-10.5c1.8,0.6,4.1,1,6.6,1
			c5.4,0,8.9-2.5,8.9-11.3V10.2z"/>
		<path class="st0" d="M41.1,54.3c3.4,1.8,8.9,3.6,14.4,3.6c6,0,9.1-2.5,9.1-6.3c0-3.5-2.7-5.6-9.6-8c-9.5-3.4-15.8-8.7-15.8-17.1
			c0-9.8,8.3-17.2,21.7-17.2c6.6,0,11.2,1.3,14.6,2.9l-2.9,10.4c-2.2-1.1-6.4-2.7-11.9-2.7c-5.6,0-8.3,2.6-8.3,5.5
			c0,3.7,3.2,5.3,10.6,8.2c10.1,3.7,14.8,9,14.8,17.2c0,9.6-7.3,17.8-23.1,17.8c-6.6,0-13-1.8-16.3-3.6L41.1,54.3z"/>
	</g>
</g>
</svg>
