<?xml version="1.0" encoding="utf-8"?>
<!-- Generator: Adobe Illustrator 19.1.1, SVG Export Plug-In . SVG Version: 6.00 Build 0)  -->
<svg version="1.1" id="Laag_1" xmlns="http://www.w3.org/2000/svg" xmlns:xlink="http://www.w3.org/1999/xlink" x="0px" y="0px"
	 viewBox="0 0 61.6 61.6" style="enable-background:new 0 0 61.6 61.6;" xml:space="preserve">
<style type="text/css">
	.st0{fill:#369793;}
	.st1{fill:none;stroke:#FFFFFF;stroke-width:1.9;stroke-miterlimit:10;}
</style>
<g>
	<path class="st0" d="M0,30.9c0,17,13.8,30.8,30.8,30.8s30.8-13.8,30.8-30.8S47.8,0.1,30.8,0.1S0,13.9,0,30.9z"/>
	<g id="Mail_1_">
		<path class="st1" d="M16.8,19.3h28c0.8,0,1.4,0.6,1.4,1.4v20.4c0,0.8-0.6,1.4-1.4,1.4h-28c-0.8,0-1.4-0.6-1.4-1.4V20.8
			C15.4,20,16,19.3,16.8,19.3z"/>
		<path class="st1" d="M45.7,20.1L35.2,31.4c-2.3,2.4-6.1,2.5-8.5,0.2c-0.1-0.1-0.1-0.1-0.2-0.2L15.9,20.2"/>
		<line class="st1" x1="36.8" y1="29.7" x2="45.4" y2="42"/>
		<line class="st1" x1="25" y1="29.8" x2="16.1" y2="42"/>
	</g>
</g>
</svg>
