<?xml version="1.0" encoding="utf-8"?>
<!-- Generator: Adobe Illustrator 19.1.1, SVG Export Plug-In . SVG Version: 6.00 Build 0)  -->
<svg version="1.1" id="Laag_1" xmlns="http://www.w3.org/2000/svg" xmlns:xlink="http://www.w3.org/1999/xlink" x="0px" y="0px"
	 viewBox="0 0 77.8 77.8" style="enable-background:new 0 0 77.8 77.8;" xml:space="preserve">
<style type="text/css">
	.st0{fill:#FFFFFF;}
</style>
<g id="Layer_2_3_">
	<g>
		<path class="st0" d="M15.6,32.7c2.4,0,4,0.5,4.9,1.4c0.8,0.9,1,2.5,0.6,4.7c-0.4,2.3-1.3,3.9-2.6,4.9c-1.3,1-3.2,1.5-5.8,1.5H8.8
			l2.4-12.4H15.6z M0,57.6h6.4l1.5-7.9h5.5c2.4,0,4.4-0.3,6-0.8c1.6-0.5,3-1.4,4.3-2.6c1.1-1,1.9-2.1,2.6-3.3c0.7-1.2,1.1-2.5,1.4-4
			c0.7-3.5,0.2-6.2-1.5-8.2S21.7,28,18,28H5.7L0,57.6z"/>
		<path class="st0" d="M32.3,20.2h6.3L37.1,28h5.7c3.6,0,6,0.6,7.4,1.9c1.3,1.3,1.8,3.3,1.2,6.1l-2.7,13.8h-6.4l2.5-13.1
			c0.3-1.5,0.2-2.5-0.3-3c-0.5-0.5-1.6-0.8-3.2-0.8h-5.1l-3.3,17h-6.3L32.3,20.2z"/>
		<path class="st0" d="M65.5,32.7c2.4,0,4,0.5,4.9,1.4c0.8,0.9,1,2.5,0.6,4.7c-0.4,2.3-1.3,3.9-2.6,4.9c-1.3,1-3.2,1.5-5.8,1.5h-3.9
			l2.4-12.4H65.5z M49.9,57.6h6.4l1.5-7.9h5.5c2.4,0,4.4-0.3,6-0.8c1.6-0.5,3-1.4,4.3-2.6c1.1-1,1.9-2.1,2.6-3.3
			c0.7-1.2,1.1-2.5,1.4-4c0.7-3.5,0.2-6.2-1.5-8.2c-1.7-2-4.4-2.9-8.1-2.9H55.6L49.9,57.6z"/>
	</g>
</g>
</svg>
