<?xml version="1.0" encoding="utf-8"?>
<!-- Generator: Adobe Illustrator 19.1.1, SVG Export Plug-In . SVG Version: 6.00 Build 0)  -->
<svg version="1.1" id="Laag_1" xmlns="http://www.w3.org/2000/svg" xmlns:xlink="http://www.w3.org/1999/xlink" x="0px" y="0px"
	 viewBox="0 0 77.8 77.8" style="enable-background:new 0 0 77.8 77.8;" xml:space="preserve">
<style type="text/css">
	.st0{fill:#FFFFFF;}
</style>
<g>
	<ellipse class="st0" cx="38.9" cy="38.8" rx="7" ry="7"/>
	<g>
		<path class="st0" d="M38.9,54.9c-9.8,0-18.3-1.2-24.7-3.4c-4.1-1.4-7.7-3.3-10.2-5.5C1.4,43.7,0,41.2,0,38.8
			c0-4.6,5-9.2,13.5-12.1c6.9-2.4,16-3.8,25.4-3.8c9.3,0,18.2,1.3,25.1,3.7c4,1.4,7.4,3.2,9.8,5.2c2.6,2.2,4,4.6,4,7
			c0,4.8-5.6,9.7-14.7,12.7C56.7,53.7,48.1,54.9,38.9,54.9z M38.9,26.3c-9,0-17.8,1.3-24.3,3.6c-7.8,2.7-11.3,6.5-11.3,9
			c0,2.6,3.8,6.7,12,9.5c6,2.1,14.2,3.2,23.6,3.2c8.8,0,17-1.1,23.1-3.2c8.5-2.9,12.5-7,12.5-9.5c0-1.3-1-2.9-2.8-4.4
			c-2.1-1.8-5.1-3.4-8.8-4.6C56.4,27.5,47.8,26.3,38.9,26.3z"/>
	</g>
	<g>
		<path class="st0" d="M23.1,73.8c-1.4,0-2.7-0.3-3.7-0.9c-4-2.3-5.4-9-3.7-17.9c1.4-7.3,4.7-15.8,9.4-24.1
			c4.6-8.1,10.2-15.2,15.7-20.1c3.2-2.8,6.5-4.9,9.4-6c3.2-1.2,6-1.2,8,0c4.1,2.4,5.5,9.8,3.6,19.2c-1.4,6.7-4.6,14.8-9.2,22.8
			c-4.9,8.5-10.1,15.4-15.2,19.9c-3.3,2.9-6.7,5-9.8,6.1C26,73.5,24.5,73.8,23.1,73.8z M26.6,31.7l1.4,0.8c-4.5,7.8-7.8,16.2-9.1,23
			c-1.5,8.2-0.1,13.1,2.1,14.3c0.5,0.3,1.2,0.5,2.1,0.5c2.8,0,7.1-1.8,12.1-6.2c4.8-4.2,9.8-10.8,14.5-19c4.4-7.7,7.5-15.4,8.8-21.8
			c1.8-8.9,0.2-14.4-2-15.6c-1.1-0.7-3-0.6-5.2,0.3c-2.6,1-5.5,2.8-8.4,5.4c-5.2,4.6-10.6,11.4-15,19.2L26.6,31.7z"/>
	</g>
	<g>
		<path class="st0" d="M54.7,73.8c-3.8,0-8.5-2.3-13.5-6.6c-5.6-4.8-11.2-12-16-20.3l0,0c-4.7-8.1-8-16.5-9.4-23.8
			c-0.8-4.2-1-8.1-0.4-11.2c0.6-3.4,2-5.8,4-7c4.1-2.4,11.1,0.1,18.3,6.5c5.1,4.5,10.4,11.4,15,19.4c4.9,8.5,8.2,16.6,9.5,23.2
			c0.8,4.3,1,8.4,0.4,11.6c-0.6,3.5-2.1,6-4.2,7.2C57.3,73.5,56.1,73.8,54.7,73.8z M28.1,45.2c4.5,7.8,10.1,14.9,15.3,19.4
			c6.2,5.4,11.2,6.6,13.4,5.3c2.2-1.3,3.9-6.6,2.2-15.2c-1.2-6.3-4.4-14-9.1-22.2c-4.4-7.7-9.5-14.3-14.3-18.6
			c-6.7-6-12.2-7.4-14.4-6.1c-1.1,0.7-2,2.3-2.4,4.7c-0.5,2.7-0.3,6.2,0.4,10C20.4,29.4,23.6,37.4,28.1,45.2L28.1,45.2z"/>
	</g>
</g>
</svg>
