<?xml version="1.0" encoding="utf-8"?>
<!-- Generator: Adobe Illustrator 19.1.1, SVG Export Plug-In . SVG Version: 6.00 Build 0)  -->
<svg version="1.1" id="Laag_1" xmlns="http://www.w3.org/2000/svg" xmlns:xlink="http://www.w3.org/1999/xlink" x="0px" y="0px"
	 viewBox="0 0 77.8 77.8" style="enable-background:new 0 0 77.8 77.8;" xml:space="preserve">
<style type="text/css">
	.st0{fill:#FFFFFF;}
</style>
<path class="st0" d="M70.6,10.9c-0.3-1.5-0.8-2.9-1.8-4.2c-3.1-4.3-8.6-5.8-13.6-6.4c-5.7-0.7-11.5-0.3-17,1.1
	c-1.5,0.4-3,0.8-4.5,1.4C30.2,4.1,27,5.9,23.9,8c-2.9,2-5.7,4-8.3,6.4c-3.3,3-5.9,6.7-7.4,10.9c-0.8,2.4-1.5,5.1-0.9,8.2
	c0.5,2.8,1.7,5.3,3.1,7.4c1.4,2.1,3,3.8,4.6,5.3c3,2.9,6,5.2,8.4,7.6c-0.9,0.4-1.8,0.8-2.7,1.2c-0.8,0.4-1.6,0.8-2.4,1.2
	c-0.8,0.5-1.5,1-2.2,1.6c-1.4,1.1-2.8,2.4-4,3.9c-1.2,1.5-2.4,3.3-3,5.7c-0.2,0.6-0.2,1.2-0.2,1.9c0,0.6,0,1.2,0.1,1.8
	c0.2,1.2,0.6,2.6,1.6,3.8c0.9,1.2,2.5,2.1,3.6,2.3c1.2,0.5,2.4,0.5,3.7,0.6c2.5,0,4.7-0.8,6.8-1.8c2.1-1.1,3.9-2.4,5.5-4.3
	c0.9-0.9,1.5-2.1,2.1-3.3c0.5-1.1,0.9-2.3,1.2-3.5c0.6-2.4,0.6-5.2-0.2-7.8c-0.3-0.9-0.7-1.8-1.1-2.6c0.4-0.1,0.9-0.3,1.3-0.5
	c3.7-1.1,8.4-1.3,11.9,0.5c1,0.5,1.8,1.3,2.6,2c0.6,0.5,1,1.3,1.5,1.9c1,1.5,0.9,3.6,0.3,5.3c-0.3,0.8-0.6,1.7-1.3,2.2
	c-0.3,0.2-1.8,1-1.6,1.5c0.2,0.5,0.8,0.9,2.6-0.2c3.8-2.3,4.3-7.4,2.2-11c-1.6-2.8-4.4-4.7-7.4-5.6c-1.7-0.5-3.5-0.8-5.2-0.8
	c-1.6-0.1-3.1,0-4.7,0.3c-0.4,0.1-4,1.3-4.1,1.2c-0.2-0.3-0.4-0.6-0.6-0.8c-3.1-3.6-6.6-6.3-9.5-9.1c-2.6-2.5-5.6-5.7-5.8-9.5
	c-0.3-4.6,3.7-9,6.7-12c1-1,2-1.9,3.1-2.7c4.9-3.8,10.9-6.8,16.7-8.8c1.7-0.6,3.4-1,5.1-1.4c2.4-0.5,4.9-0.8,7.4-0.8
	c3.4,0,6.9,0.6,9.8,2.7c1.8,1.3,2.7,3.2,2.7,5.4c-0.2,6.4-6.2,11.4-11.5,13.8c-5.9,2.7-13.9,5-18.6,2.8c-2.3-1.1-4.6-3-5.2-2
	c-0.5,0.8,4.6,4.2,5.1,4.5c4.6,2.5,12,1.8,17.6,0.1c6.2-1.9,11.9-6,15.3-11.6C70.1,18.6,71.3,14.6,70.6,10.9z M27.3,61.7
	c0,1.3-0.3,2.7-0.7,4c-0.5,1.1-1,2.1-1.9,3c-1.7,1.9-4,3.1-5.9,3.3c-0.3,0.1-0.5,0-0.7,0c-0.2,0-0.5,0-0.7-0.1
	c-0.4-0.1-0.9-0.2-1.1-0.4c-0.2-0.1-0.3-0.3-0.5-0.5c-0.1-0.3-0.3-0.6-0.3-1.1c0-0.2,0-0.5-0.1-0.7c0-0.2,0-0.4,0-0.6
	c0.1-0.4,0.2-0.9,0.3-1.4c0.3-1,0.9-2,1.5-2.9c1.3-1.8,2.9-3.6,4.5-4.8c1.3-0.9,2.7-1.7,4.1-2.5C26.9,58.6,27.4,60.1,27.3,61.7z"/>
</svg>
