<?xml version="1.0" encoding="utf-8"?>
<!-- Generator: Adobe Illustrator 19.1.1, SVG Export Plug-In . SVG Version: 6.00 Build 0)  -->
<svg version="1.1" id="Laag_1" xmlns="http://www.w3.org/2000/svg" xmlns:xlink="http://www.w3.org/1999/xlink" x="0px" y="0px"
	 viewBox="0 0 61.6 61.6" style="enable-background:new 0 0 61.6 61.6;" xml:space="preserve">
<style type="text/css">
	.st0{fill:#369793;}
</style>
<path class="st0" d="M35.1,18.7c-2.7,1-4.4,3.5-4.2,6.2L31,26l-1.1-0.1c-3.9-0.5-7.3-2.2-10.2-5l-1.4-1.4l-0.4,1
	c-0.8,2.3-0.3,4.8,1.3,6.4c0.9,0.9,0.7,1-0.8,0.5c-0.5-0.2-1-0.3-1-0.2c-0.1,0.2,0.4,2.1,0.8,2.9c0.6,1.1,1.7,2.1,2.9,2.8l1.1,0.5
	l-1.2,0c-1.2,0-1.2,0-1.1,0.5c0.4,1.4,2.1,2.9,4,3.6l1.3,0.5L24,38.6c-1.7,1-3.7,1.6-5.8,1.6c-1,0-1.8,0.1-1.8,0.2
	c0,0.2,2.6,1.4,4.1,1.9c4.6,1.4,10,0.8,14.1-1.6c2.9-1.7,5.8-5.1,7.1-8.4c0.7-1.8,1.5-5,1.5-6.5c0-1,0.1-1.1,1.3-2.3
	c0.7-0.7,1.4-1.5,1.5-1.7c0.2-0.4,0.2-0.4-0.9,0c-1.8,0.7-2.1,0.6-1.2-0.4c0.7-0.7,1.5-2,1.5-2.3c0-0.1-0.3,0-0.7,0.2
	c-0.4,0.2-1.2,0.5-1.9,0.7l-1.2,0.4l-1.1-0.7c-0.6-0.4-1.4-0.8-1.8-1C37.7,18.3,36.1,18.4,35.1,18.7z M30.8,61.4
	c-17,0-30.7-13.8-30.7-30.7C0.1,13.8,13.8,0,30.8,0s30.7,13.8,30.7,30.7C61.5,47.7,47.8,61.4,30.8,61.4z"/>
</svg>
