<?xml version="1.0" encoding="utf-8"?>
<!-- Generator: Adobe Illustrator 19.1.1, SVG Export Plug-In . SVG Version: 6.00 Build 0)  -->
<svg version="1.1" id="Laag_1" xmlns="http://www.w3.org/2000/svg" xmlns:xlink="http://www.w3.org/1999/xlink" x="0px" y="0px"
	 viewBox="0 0 77.8 77.8" style="enable-background:new 0 0 77.8 77.8;" xml:space="preserve">
<style type="text/css">
	.st0{fill:#FFFFFF;}
</style>
<path id="Cat_4_" class="st0" d="M52.9,77.8H42.6H32.3c0,0,0-6.2,0-10.4c-14.1,3.1-18-7.8-18-7.8c-2.6-5.2-5.1-7.8-5.1-7.8
	c-5.1-3.1,0-2.6,0-2.6c5.1,0,7.7,5.2,7.7,5.2c4.5,7.7,12.5,6.5,15.4,5.2c0-2.6,1.1-6.5,2.6-7.8c-11.2-1.3-20.6-7.8-20.6-20.8
	s2.6-15.6,5.2-18.2c-0.5-1.3-2.7-6,0.1-13c0,0,5.1,0,10.2,7.8C32.3,5.2,40,5.2,42.6,5.2c2.6,0,10.3,0,12.9,2.6C60.6,0,65.7,0,65.7,0
	c2.8,7,0.6,11.7,0.1,13c2.6,2.6,5.1,5.2,5.1,18.2s-9.3,19.5-20.6,20.8c1.4,1.3,2.6,5.7,2.6,7.8V77.8z"/>
</svg>
