<?xml version="1.0" encoding="utf-8"?>
<!-- Generator: Adobe Illustrator 19.1.1, SVG Export Plug-In . SVG Version: 6.00 Build 0)  -->
<svg version="1.1" id="Laag_1" xmlns="http://www.w3.org/2000/svg" xmlns:xlink="http://www.w3.org/1999/xlink" x="0px" y="0px"
	 viewBox="0 0 61.6 61.6" style="enable-background:new 0 0 61.6 61.6;" xml:space="preserve">
<style type="text/css">
	.st0{fill:#fff;}
</style>
<g>
	<g>
		<polygon class="st0" points="43.6,24 43.6,19.1 43.6,18.3 42.8,18.4 37.9,18.4 37.9,24.1 		"/>
		<path class="st0" d="M30.7,37.2c3.3,0,5.9-2.7,5.9-5.9c0-1.3-0.4-2.5-1.1-3.4c-1.1-1.5-2.8-2.5-4.8-2.5s-3.7,1-4.8,2.5
			c-0.7,1-1.1,2.2-1.1,3.4C24.7,34.5,27.4,37.2,30.7,37.2z"/>
		<path class="st0" d="M30.8-0.1C13.7-0.1-0.1,13.7-0.1,30.8s13.8,30.9,30.9,30.9c17.1,0,30.9-13.8,30.9-30.9S47.9-0.1,30.8-0.1z
			 M47.5,27.8v13.8c0,3.6-2.9,6.5-6.5,6.5H20.3c-3.6,0-6.5-2.9-6.5-6.5V27.8V21c0-3.6,2.9-6.5,6.5-6.5H41c3.6,0,6.5,2.9,6.5,6.5
			C47.5,21,47.5,27.8,47.5,27.8z"/>
		<path class="st0" d="M39.8,31.3c0,5.1-4.1,9.2-9.2,9.2s-9.2-4.1-9.2-9.2c0-1.2,0.2-2.4,0.7-3.4h-5v13.8c0,1.8,1.4,3.2,3.2,3.2H41
			c1.8,0,3.2-1.4,3.2-3.2V27.8h-5C39.6,28.9,39.8,30.1,39.8,31.3z"/>
	</g>
</g>
</svg>
