<?xml version="1.0" encoding="utf-8"?>
<!-- Generator: Adobe Illustrator 19.1.1, SVG Export Plug-In . SVG Version: 6.00 Build 0)  -->
<svg version="1.1" id="Laag_1" xmlns="http://www.w3.org/2000/svg" xmlns:xlink="http://www.w3.org/1999/xlink" x="0px" y="0px"
	 viewBox="0 0 77.8 77.8" style="enable-background:new 0 0 77.8 77.8;" xml:space="preserve">
<style type="text/css">
	.st0{fill:#FFFFFF;}
</style>
<path class="st0" d="M47.2,65.8c-0.8-0.3-1.3-0.9-1.7-1.6c-0.6-1-1.3-2-1.8-3.1c-2.2-4-4.4-8-6.6-12c-0.1-0.1-0.1-0.2-0.2-0.3
	c-0.4,0.1-0.7,0.2-1.1,0.3c-4.9,1.3-9.7,2.5-14.6,3.8c-0.6,0.2-1.1,0.3-1.7,0.3c-1.2,0-2.1-0.5-2.7-1.5c-0.2-0.2-0.3-0.5-0.4-0.8
	c-4.5-9.8-9-19.5-13.4-29.3c-0.8-1.7-1.6-3.5-2.4-5.2c-0.2-0.4-0.3-0.9-0.5-1.4C0.1,15,0,14.9,0,14.9c0-0.2,0-0.4,0-0.6
	c0-0.1,0.1-0.2,0.1-0.2c0.1-0.3,0.3-0.5,0.6-0.6c0.2-0.1,0.4-0.2,0.6-0.2c1.2-0.1,2.3-0.2,3.5-0.3c1.6-0.1,3.2-0.2,4.8-0.4
	c2.1-0.2,4.1-0.3,6.2-0.5c0.3,0,0.7-0.1,1-0.1c0.3,0,0.7,0,1,0c0.1,0,0.1,0,0.2,0.1c0.5,0.1,0.9,0.3,1.1,0.7
	c0.2,0.4,0.5,0.7,0.7,1.1C26,24.2,32.1,34.5,38.2,44.8c0.1,0.1,0.1,0.2,0.2,0.3c7.8-1.9,15.7-3.8,23.5-5.7c-0.1-0.1-0.1-0.2-0.2-0.3
	c-2.5-3.6-5-7.2-7.5-10.7c-0.1-0.1-0.2-0.3-0.2-0.4c-0.2-0.4-0.1-0.7,0.3-0.9c0.3-0.1,0.6-0.2,0.9-0.3c1.4-0.2,2.9-0.5,4.3-0.7
	c1.9-0.3,3.8-0.7,5.7-1c0.5-0.1,1-0.2,1.4-0.2c0.4-0.1,0.8,0.1,1.2,0.3c0.4,0.3,0.7,0.6,1,1c1.9,2.4,3.9,4.8,5.8,7.2
	c1,1.3,2.1,2.5,3.1,3.8c0.1,0.1,0.2,0.2,0.2,0.3c0,0.2,0,0.3,0,0.5c-0.2,0.3-0.5,0.4-0.8,0.5c-3.4,0.9-6.8,1.8-10.2,2.8
	c-0.1,0-0.2,0.1-0.3,0.1c0.1,0.1,0.1,0.2,0.2,0.3c1.6,2.1,3.1,4.2,4.7,6.3s3.1,4.2,4.6,6.3c0.1,0.2,0.2,0.4,0.3,0.6
	c0.2,0.4,0.1,0.7-0.2,0.9c-0.2,0.2-0.4,0.3-0.7,0.3c-0.8,0.3-1.5,0.6-2.3,0.9c-6.3,2.3-12.6,4.6-19,6.9c-1.5,0.6-3.1,1.1-4.6,1.6
	c-0.4,0.1-0.8,0.2-1.2,0.3C47.9,65.8,47.5,65.8,47.2,65.8z M16.5,14.3c-1,0.1-2,0.2-3,0.2c-1,0.1-2.1,0.2-3.1,0.3
	c-1.3,0.1-2.6,0.2-3.9,0.3c-0.9,0.1-1.7,0.2-2.6,0.2c-0.2,0-0.3,0.1-0.2,0.3c0,0.1,0.1,0.2,0.1,0.3c0.1,0.2,0.2,0.4,0.3,0.6
	c4,8.2,7.9,16.4,11.8,24.6c1.3,2.7,2.5,5.3,3.8,8c0.1,0.2,0.2,0.2,0.3,0.2c0.2,0,0.4-0.1,0.6-0.1c4.2-1,8.4-2,12.7-3
	c0.4-0.1,0.9-0.2,1.3-0.3c0.3-0.1,0.4-0.2,0.3-0.6c-0.1-0.2-0.1-0.3-0.2-0.4c-5.8-10.1-11.6-20.2-17.4-30.3
	C17.1,14.3,17.1,14.3,16.5,14.3z M40.1,48c0.1,0.1,0.1,0.2,0.2,0.2c1.7,3,3.5,6,5.2,9c0.7,1.2,1.4,2.4,2.1,3.5
	c0.2,0.2,0.3,0.5,0.5,0.7c0.2,0.2,0.5,0.3,0.8,0.2c0.1-0.1,0.2-0.1,0.4-0.1c5.1-1.8,10.3-3.5,15.4-5.3c2.3-0.8,4.7-1.6,7-2.4
	c0.1,0,0.3-0.1,0.4-0.2c0.2-0.1,0.3-0.2,0.1-0.5c-0.1-0.2-0.2-0.3-0.3-0.5c-0.9-1.3-1.9-2.6-2.8-3.9c-1.5-2.1-3-4.2-4.6-6.3
	c-0.1-0.2-0.2-0.4-0.4-0.6c-0.2-0.2-0.3-0.3-0.6-0.2c-0.2,0.1-0.3,0.1-0.5,0.2c-2.5,0.7-5,1.3-7.5,2c-5,1.3-10,2.6-15,3.9
	C40.3,47.9,40.2,47.9,40.1,48z M64.5,38.8c0.1,0,0.1,0,0.2,0c2.9-0.7,5.9-1.5,8.9-2.2c0.1,0,0.2-0.1,0.4-0.1
	c0.3-0.1,0.3-0.3,0.1-0.5c0,0-0.1-0.1-0.1-0.1c-2.2-2.8-4.3-5.6-6.5-8.3c0-0.1-0.1-0.1-0.1-0.2c-0.2-0.2-0.5-0.3-0.8-0.2
	c-2.6,0.5-5.3,1-7.9,1.5c-0.3,0.1-0.6,0.1-1,0.2c-0.3,0.1-0.3,0.2-0.2,0.4c0.1,0.1,0.1,0.2,0.2,0.3c2.2,3,4.4,6.1,6.6,9.1
	C64.3,38.6,64.4,38.7,64.5,38.8z"/>
</svg>
