<?xml version="1.0" encoding="utf-8"?>
<!-- Generator: Adobe Illustrator 19.1.1, SVG Export Plug-In . SVG Version: 6.00 Build 0)  -->
<svg version="1.1" id="Laag_1" xmlns="http://www.w3.org/2000/svg" xmlns:xlink="http://www.w3.org/1999/xlink" x="0px" y="0px"
	 viewBox="0 0 61.6 61.6" style="enable-background:new 0 0 61.6 61.6;" xml:space="preserve">
<style type="text/css">
	.st0{fill:#369793;}
	.st1{fill:#FFFFFF;}
</style>
<g id="black">
	<g id="whatsapp">
		<path class="st0" d="M30.8,61.5c17,0,30.7-13.8,30.7-30.7S47.8,0.1,30.8,0.1S0.1,13.8,0.1,30.8S13.8,61.5,30.8,61.5z"/>
		<path class="st1" d="M30.9,47.4c-2.9,0-5.7-0.7-8.1-2.1l-9.2,2.9l3-8.9c-1.5-2.5-2.4-5.4-2.4-8.6c0-9.2,7.5-16.6,16.7-16.6
			c9.2,0,16.7,7.4,16.7,16.6S40.1,47.4,30.9,47.4z M30.9,16.9c-7.7,0-14,6.3-14,13.9c0,3,1,5.9,2.7,8.2l-1.8,5.2l5.4-1.7
			c2.2,1.5,4.9,2.3,7.7,2.3c7.7,0,14-6.3,14-13.9S38.6,16.9,30.9,16.9L30.9,16.9z M39.3,34.7c-0.1-0.2-0.4-0.3-0.8-0.5
			c-0.4-0.2-2.4-1.2-2.8-1.3c-0.4-0.1-0.6-0.2-0.9,0.2c-0.3,0.4-1.1,1.3-1.3,1.6c-0.2,0.3-0.5,0.3-0.9,0.1c-0.4-0.2-1.7-0.6-3.3-2
			c-1.2-1.1-2-2.4-2.3-2.8c-0.2-0.4,0-0.6,0.2-0.8c0.2-0.2,0.4-0.5,0.6-0.7c0.2-0.2,0.3-0.4,0.4-0.7c0.1-0.3,0.1-0.5,0-0.7
			c-0.1-0.2-0.9-2.2-1.3-3c-0.3-0.8-0.7-0.7-0.9-0.7c-0.2,0-0.5,0-0.8,0s-0.7,0.1-1.1,0.5c-0.4,0.4-1.4,1.4-1.4,3.4
			c0,2,1.5,3.9,1.7,4.2c0.2,0.3,2.8,4.5,7,6.1c4.2,1.6,4.2,1.1,4.9,1c0.7-0.1,2.4-1,2.8-1.9C39.4,35.6,39.4,34.8,39.3,34.7
			L39.3,34.7z"/>
	</g>
</g>
</svg>
