<?xml version="1.0" encoding="UTF-8" standalone="no"?>
<!-- Created with Inkscape (http://www.inkscape.org/) -->

<svg
   width="185.32503mm"
   height="41.321999mm"
   viewBox="0 0 185.32503 41.321998"
   version="1.1"
   id="svg5"
   inkscape:version="1.2.2 (b0a84865, 2022-12-01)"
   sodipodi:docname="brand.svg"
   xmlns:inkscape="http://www.inkscape.org/namespaces/inkscape"
   xmlns:sodipodi="http://sodipodi.sourceforge.net/DTD/sodipodi-0.dtd"
   xmlns="http://www.w3.org/2000/svg"
   xmlns:svg="http://www.w3.org/2000/svg">
  <sodipodi:namedview
     id="namedview7"
     pagecolor="#ffffff"
     bordercolor="#000000"
     borderopacity="0.25"
     inkscape:showpageshadow="2"
     inkscape:pageopacity="0.0"
     inkscape:pagecheckerboard="0"
     inkscape:deskcolor="#d1d1d1"
     inkscape:document-units="mm"
     showgrid="false"
     showguides="true"
     inkscape:zoom="0.914906"
     inkscape:cx="181.98591"
     inkscape:cy="156.84671"
     inkscape:window-width="1732"
     inkscape:window-height="1205"
     inkscape:window-x="413"
     inkscape:window-y="112"
     inkscape:window-maximized="0"
     inkscape:current-layer="layer1">
    <sodipodi:guide
       position="196.32023,54.761116"
       orientation="0,-1"
       id="guide2462"
       inkscape:locked="false" />
  </sodipodi:namedview>
  <defs
     id="defs2">
    <rect
       x="304.94937"
       y="255.76398"
       width="416.43622"
       height="108.20784"
       id="rect329" />
    <rect
       x="24.046186"
       y="38.255295"
       width="615.36377"
       height="110.39385"
       id="rect113" />
  </defs>
  <g
     inkscape:label="Layer 1"
     inkscape:groupmode="layer"
     id="layer1"
     transform="translate(-0.0409822,-0.13636315)">
    <g
       aria-label="SYTATSU"
       transform="matrix(3.5871121,0,0,3.6210151,-85.995959,-146.48514)"
       id="text6756"
       style="white-space:pre;display:inline;fill:#7ad1f1">
      <path
         d="m 29.410875,42.915823 q -0.264,-0.336 -0.696,-0.528 -0.42,-0.204 -0.816,-0.204 -0.204,0 -0.42,0.036 -0.204,0.036 -0.372,0.144 -0.168,0.096 -0.288,0.264 -0.108,0.156 -0.108,0.408 0,0.216 0.084,0.36 0.096,0.144 0.264,0.252 0.18,0.108 0.42,0.204 0.24,0.084 0.54,0.18 0.432,0.144 0.9,0.324 0.468,0.168 0.852,0.456 0.384,0.288 0.636,0.72 0.252,0.42 0.252,1.056 0,0.732 -0.276,1.272 -0.264,0.528 -0.72,0.876 -0.456,0.348 -1.044,0.516 -0.588,0.168 -1.212,0.168 -0.912,0 -1.764,-0.312 -0.852,-0.324 -1.416,-0.912 l 1.344,-1.368 q 0.312,0.384 0.816,0.648 0.516,0.252 1.02,0.252 0.228,0 0.444,-0.048 0.216,-0.048 0.372,-0.156 0.168,-0.108 0.264,-0.288 0.096,-0.18 0.096,-0.432 0,-0.24 -0.12,-0.408 -0.12,-0.168 -0.348,-0.3 -0.216,-0.144 -0.552,-0.252 -0.324,-0.12 -0.744,-0.252 -0.408,-0.132 -0.804,-0.312 -0.384,-0.18 -0.696,-0.456 -0.3,-0.288 -0.492,-0.684 -0.18,-0.408 -0.18,-0.984 0,-0.708 0.288,-1.212 0.288,-0.504 0.756,-0.828 0.468,-0.324 1.056,-0.468 0.588,-0.156 1.188,-0.156 0.72,0 1.464,0.264 0.756,0.264 1.32,0.78 z"
         style="font-weight:bold;font-family:'Avenir Next';-inkscape-font-specification:'Avenir Next Bold'"
         id="path13277" />
      <path
         d="m 35.962855,45.603823 v 3.6 h -2.052 v -3.6 l -3.192,-4.896 h 2.484 l 1.812,3.144 1.812,-3.144 h 2.4 z"
         style="font-weight:bold;font-family:'Avenir Next';-inkscape-font-specification:'Avenir Next Bold'"
         id="path13279" />
      <path
         d="m 43.498839,42.459823 v 6.744 h -2.052 v -6.744 h -2.4 v -1.752 h 6.852 v 1.752 z"
         style="font-weight:bold;font-family:'Avenir Next';-inkscape-font-specification:'Avenir Next Bold'"
         id="path13281" />
      <path
         d="m 51.874815,49.203823 -0.66,-1.668 h -3.288 l -0.624,1.668 h -2.232 l 3.564,-8.496 h 1.992 l 3.528,8.496 z m -2.28,-6.228 -1.08,2.916 h 2.136 z"
         style="font-weight:bold;font-family:'Avenir Next';-inkscape-font-specification:'Avenir Next Bold'"
         id="path13283" />
      <path
         d="m 57.778777,42.459823 v 6.744 h -2.052 v -6.744 h -2.4 v -1.752 h 6.852 v 1.752 z"
         style="font-weight:bold;font-family:'Avenir Next';-inkscape-font-specification:'Avenir Next Bold'"
         id="path13285" />
      <path
         d="m 65.60277,42.915823 q -0.264,-0.336 -0.696,-0.528 -0.42,-0.204 -0.816,-0.204 -0.204,0 -0.42,0.036 -0.204,0.036 -0.372,0.144 -0.168,0.096 -0.288,0.264 -0.108,0.156 -0.108,0.408 0,0.216 0.084,0.36 0.096,0.144 0.264,0.252 0.18,0.108 0.42,0.204 0.24,0.084 0.54,0.18 0.432,0.144 0.9,0.324 0.468,0.168 0.852,0.456 0.384,0.288 0.636,0.72 0.252,0.42 0.252,1.056 0,0.732 -0.276,1.272 -0.264,0.528 -0.72,0.876 -0.456,0.348 -1.044,0.516 -0.588,0.168 -1.212,0.168 -0.912,0 -1.764,-0.312 -0.852,-0.324 -1.416,-0.912 l 1.344,-1.368 q 0.312,0.384 0.816,0.648 0.516,0.252 1.02,0.252 0.228,0 0.444,-0.048 0.216,-0.048 0.372,-0.156 0.168,-0.108 0.264,-0.288 0.096,-0.18 0.096,-0.432 0,-0.24 -0.12,-0.408 -0.12,-0.168 -0.348,-0.3 -0.216,-0.144 -0.552,-0.252 -0.324,-0.12 -0.744,-0.252 -0.408,-0.132 -0.804,-0.312 -0.384,-0.18 -0.696,-0.456 -0.3,-0.288 -0.492,-0.684 -0.18,-0.408 -0.18,-0.984 0,-0.708 0.288,-1.212 0.288,-0.504 0.756,-0.828 0.468,-0.324 1.056,-0.468 0.588,-0.156 1.188,-0.156 0.72,0 1.464,0.264 0.756,0.264 1.32,0.78 z"
         style="font-weight:bold;font-family:'Avenir Next';-inkscape-font-specification:'Avenir Next Bold'"
         id="path13287" />
      <path
         d="m 75.406765,45.999823 q 0,0.768 -0.264,1.404 -0.252,0.624 -0.732,1.08 -0.48,0.444 -1.164,0.696 -0.672,0.252 -1.5,0.252 -0.84,0 -1.512,-0.252 -0.672,-0.252 -1.14,-0.696 -0.468,-0.456 -0.72,-1.08 -0.252,-0.636 -0.252,-1.404 v -5.292 h 2.04 v 5.124 q 0,0.348 0.084,0.66 0.096,0.312 0.276,0.564 0.192,0.24 0.492,0.384 0.312,0.144 0.744,0.144 0.432,0 0.732,-0.144 0.312,-0.144 0.504,-0.384 0.192,-0.252 0.276,-0.564 0.084,-0.312 0.084,-0.66 v -5.124 h 2.052 v 5.292 z"
         style="font-weight:bold;font-family:'Avenir Next';-inkscape-font-specification:'Avenir Next Bold'"
         id="path13289" />
    </g>
    <g
       aria-label="PRINT &amp; SHOP"
       transform="matrix(0.23181853,0,0,0.23181853,23.715025,-26.487281)"
       id="text3337"
       style="font-weight:bold;font-size:42.6667px;font-family:'Avenir Next';-inkscape-font-specification:'Avenir Next Bold';letter-spacing:10px;white-space:pre;display:inline;fill:#fa6933">
      <path
         d="m 308.95989,262.12376 h 8.53334 q 2.304,0 4.18133,0.512 1.87734,0.46934 3.20001,1.49334 1.36533,0.98133 2.09067,2.51733 0.72533,1.49334 0.72533,3.54134 0,2.048 -0.768,3.584 -0.72534,1.49334 -2.09067,2.51734 -1.32267,0.98133 -3.24267,1.49333 -1.87733,0.512 -4.18134,0.512 h -5.376 v 14.03735 h -3.072 z m 3.072,13.56801 h 5.20534 q 3.62667,0 5.504,-1.408 1.87734,-1.408 1.87734,-4.096 0,-2.816 -1.96267,-4.096 -1.92,-1.32267 -5.41867,-1.32267 h -5.20534 z"
         style="font-weight:normal;-inkscape-font-specification:'Avenir Next'"
         id="path13292" />
      <path
         d="m 346.77857,292.33179 h -3.072 v -30.20803 h 8.87467 q 2.21867,0 4.09601,0.42667 1.92,0.42667 3.28533,1.408 1.408,0.93867 2.176,2.47467 0.768,1.536 0.768,3.75467 0,1.664 -0.59733,3.02934 -0.59733,1.36533 -1.62133,2.38933 -1.02401,0.98134 -2.43201,1.57867 -1.408,0.59733 -3.072,0.768 l 8.83201,14.37868 h -3.75467 l -8.36267,-14.12268 h -5.12001 z m 0,-16.76802 h 5.33334 q 3.712,0 5.71734,-1.32266 2.00533,-1.36534 2.00533,-4.05334 0,-1.49333 -0.55467,-2.51733 -0.55466,-1.02401 -1.536,-1.66401 -0.98133,-0.64 -2.38933,-0.93866 -1.408,-0.29867 -3.11467,-0.29867 h -5.46134 z"
         style="font-weight:normal;-inkscape-font-specification:'Avenir Next'"
         id="path13294" />
      <path
         d="m 382.33588,292.33179 h -3.072 v -30.20803 h 3.072 z"
         style="font-weight:normal;-inkscape-font-specification:'Avenir Next'"
         id="path13296" />
      <path
         d="m 421.77583,287.85178 h 0.0853 v -25.72802 h 3.072 v 30.20803 h -3.84 l -17.57868,-25.98402 h -0.0853 v 25.98402 h -3.072 v -30.20803 h 3.84 z"
         style="font-weight:normal;-inkscape-font-specification:'Avenir Next'"
         id="path13298" />
      <path
         d="m 452.63984,292.33179 h -3.072 v -27.47736 h -10.11201 v -2.73067 h 23.29602 v 2.73067 h -10.11201 z"
         style="font-weight:normal;-inkscape-font-specification:'Avenir Next'"
         id="path13300" />
      <path
         d="m 515.47712,285.33445 6.784,6.99734 h -4.26667 l -4.26667,-4.48001 q -1.87733,2.56001 -4.05333,3.79734 -2.17601,1.19467 -5.24801,1.19467 -1.92,0 -3.66933,-0.55467 -1.70667,-0.55467 -2.98667,-1.57867 -1.28,-1.06666 -2.048,-2.60267 -0.72534,-1.57866 -0.72534,-3.62667 0,-1.70666 0.512,-3.072 0.55467,-1.36533 1.49334,-2.432 0.93866,-1.10933 2.21866,-1.96267 1.28001,-0.85333 2.77334,-1.49333 -0.68267,-0.68267 -1.36533,-1.49334 -0.64,-0.81066 -1.15201,-1.664 -0.512,-0.896 -0.85333,-1.87733 -0.29867,-0.98134 -0.29867,-2.00534 0,-1.70667 0.59734,-3.02933 0.59733,-1.32267 1.62133,-2.21867 1.024,-0.93867 2.38934,-1.408 1.36533,-0.46934 2.90133,-0.46934 1.49334,0 2.816,0.46934 1.32267,0.42666 2.30401,1.32267 1.024,0.85333 1.57866,2.13333 0.59734,1.23733 0.59734,2.85867 0,1.49333 -0.59734,2.688 -0.55466,1.19467 -1.536,2.176 -0.93866,0.93867 -2.176,1.70667 -1.19467,0.72533 -2.47467,1.36533 l 7.04001,7.25334 4.18133,-7.33867 h 3.45601 z m -5.33334,-17.19468 q 0,-1.87734 -1.23733,-3.072 -1.19467,-1.19467 -3.02934,-1.19467 -2.00534,0 -3.28534,1.28 -1.28,1.23733 -1.28,3.37067 0,0.81067 0.34134,1.70667 0.34133,0.85333 0.85333,1.62133 0.512,0.768 1.06667,1.408 0.59733,0.64 1.024,0.98134 1.024,-0.46934 2.00533,-1.024 0.98134,-0.59734 1.74934,-1.32267 0.81067,-0.72534 1.28,-1.664 0.512,-0.93867 0.512,-2.09067 z m -6.44267,9.34401 q -2.73067,1.23733 -4.13867,2.944 -1.408,1.664 -1.408,4.096 0,1.28 0.46933,2.34667 0.512,1.06667 1.36534,1.83467 0.896,0.72533 2.048,1.152 1.152,0.42667 2.432,0.42667 2.47467,0 4.096,-1.10934 1.664,-1.10933 3.11467,-3.328 z"
         style="font-weight:normal;-inkscape-font-specification:'Avenir Next'"
         id="path13302" />
      <path
         d="m 572.25567,266.98777 q -0.98134,-1.36534 -2.51734,-2.176 -1.536,-0.85334 -3.712,-0.85334 -1.10933,0 -2.26133,0.34134 -1.15201,0.34133 -2.09067,1.06666 -0.93867,0.68267 -1.536,1.74934 -0.55467,1.06667 -0.55467,2.51733 0,1.45067 0.55467,2.38934 0.55466,0.93867 1.45066,1.62133 0.93867,0.64 2.09067,1.06667 1.19467,0.42667 2.47467,0.85333 1.57867,0.512 3.15734,1.10934 1.62133,0.59733 2.90133,1.57867 1.28,0.93866 2.09067,2.432 0.81067,1.45067 0.81067,3.712 0,2.26134 -0.896,3.92534 -0.85334,1.62133 -2.26134,2.688 -1.36533,1.06667 -3.15733,1.57867 -1.74934,0.512 -3.54134,0.512 -1.36533,0 -2.73067,-0.29867 -1.36533,-0.256 -2.60267,-0.81067 -1.23733,-0.55466 -2.304,-1.408 -1.06667,-0.85333 -1.87733,-1.96267 l 2.64533,-1.96266 q 0.98134,1.62133 2.73067,2.73066 1.792,1.06667 4.18134,1.06667 1.152,0 2.34666,-0.34133 1.19467,-0.384 2.13334,-1.10934 0.98133,-0.768 1.57867,-1.83466 0.64,-1.10934 0.64,-2.56001 0,-1.57866 -0.64,-2.60266 -0.59734,-1.06667 -1.62134,-1.74934 -1.024,-0.72533 -2.34667,-1.19467 -1.32266,-0.46933 -2.77333,-0.93866 -1.49334,-0.46934 -2.944,-1.06667 -1.45067,-0.59733 -2.60267,-1.536 -1.152,-0.98134 -1.87734,-2.38934 -0.68266,-1.408 -0.68266,-3.456 0,-2.176 0.85333,-3.75467 0.896,-1.57867 2.304,-2.60267 1.408,-1.024 3.11467,-1.49333 1.70667,-0.46934 3.37067,-0.46934 3.072,0 5.248,1.10934 2.17601,1.06667 3.28534,2.56 z"
         style="font-weight:normal;-inkscape-font-specification:'Avenir Next'"
         id="path13304" />
      <path
         d="m 591.68496,262.12376 h 3.072 v 13.09868 h 16.46934 v -13.09868 h 3.07201 v 30.20803 h -3.07201 v -14.29335 h -16.46934 v 14.29335 h -3.072 z"
         style="font-weight:normal;-inkscape-font-specification:'Avenir Next'"
         id="path13306" />
      <path
         d="m 662.18629,277.22778 q 0,3.456 -1.19467,6.35733 -1.19467,2.90134 -3.328,5.03467 -2.09067,2.09067 -4.99201,3.28534 -2.85866,1.19467 -6.22933,1.19467 -3.37067,0 -6.27201,-1.19467 -2.85867,-1.19467 -4.992,-3.28534 -2.09067,-2.13333 -3.28534,-5.03467 -1.19467,-2.90133 -1.19467,-6.35733 0,-3.45601 1.19467,-6.35734 1.19467,-2.90134 3.28534,-4.99201 2.13333,-2.13333 4.992,-3.328 2.90134,-1.19467 6.27201,-1.19467 3.37067,0 6.22933,1.19467 2.90134,1.19467 4.99201,3.328 2.13333,2.09067 3.328,4.99201 1.19467,2.90133 1.19467,6.35734 z m -3.24267,0 q 0,-2.64534 -0.85334,-5.03467 -0.85333,-2.38934 -2.47466,-4.18134 -1.62134,-1.83467 -3.96801,-2.90134 -2.304,-1.06666 -5.20533,-1.06666 -2.90134,0 -5.24801,1.06666 -2.304,1.06667 -3.92533,2.90134 -1.62134,1.792 -2.47467,4.18134 -0.85334,2.38933 -0.85334,5.03467 0,2.64533 0.85334,5.03467 0.85333,2.38933 2.47467,4.18133 1.62133,1.792 3.92533,2.85867 2.34667,1.06667 5.24801,1.06667 2.90133,0 5.20533,-1.06667 2.34667,-1.06667 3.96801,-2.85867 1.62133,-1.792 2.47466,-4.18133 0.85334,-2.38934 0.85334,-5.03467 z"
         style="font-weight:normal;-inkscape-font-specification:'Avenir Next'"
         id="path13308" />
      <path
         d="m 678.58623,262.12376 h 8.53334 q 2.304,0 4.18134,0.512 1.87733,0.46934 3.2,1.49334 1.36533,0.98133 2.09067,2.51733 0.72533,1.49334 0.72533,3.54134 0,2.048 -0.768,3.584 -0.72533,1.49334 -2.09067,2.51734 -1.32266,0.98133 -3.24267,1.49333 -1.87733,0.512 -4.18133,0.512 h -5.37601 v 14.03735 h -3.072 z m 3.072,13.56801 h 5.20534 q 3.62667,0 5.504,-1.408 1.87734,-1.408 1.87734,-4.096 0,-2.816 -1.96267,-4.096 -1.92,-1.32267 -5.41867,-1.32267 h -5.20534 z"
         style="font-weight:normal;-inkscape-font-specification:'Avenir Next'"
         id="path13310" />
    </g>
  </g>
</svg>
