<?xml version="1.0" standalone="no"?>
<!DOCTYPE svg PUBLIC "-//W3C//DTD SVG 20010904//EN"
 "http://www.w3.org/TR/2001/REC-SVG-20010904/DTD/svg10.dtd">
<svg version="1.0" xmlns="http://www.w3.org/2000/svg"
 width="1080.000000pt" height="1080.000000pt" viewBox="0 0 1080.000000 1080.000000"
 preserveAspectRatio="xMidYMid meet">
<metadata>
Created by potrace 1.14, written by Peter Selinger 2001-2017
</metadata>
<g transform="translate(0.000000,1080.000000) scale(0.100000,-0.100000)"
fill="#000000" stroke="none">
<path d="M5495 9469 c-222 -21 -469 -67 -706 -130 -713 -189 -1233 -554 -1562
-1095 -143 -235 -229 -483 -274 -789 -24 -166 -24 -572 0 -735 51 -342 124
-536 308 -809 148 -222 322 -391 567 -553 267 -176 580 -310 1192 -513 360
-119 693 -240 798 -290 176 -84 345 -199 444 -302 75 -80 113 -142 145 -238
24 -72 27 -95 26 -220 0 -110 -5 -157 -22 -220 -104 -393 -452 -595 -1021
-595 -178 0 -298 14 -458 55 -396 100 -787 331 -1075 636 l-104 110 -538 -553
c-296 -304 -566 -582 -599 -616 l-61 -64 95 -90 c585 -556 1383 -894 2330
-990 166 -16 632 -16 790 0 358 38 708 121 990 234 852 344 1384 1015 1506
1898 21 152 29 472 15 617 -32 344 -114 585 -289 848 -228 342 -501 581 -906
790 -213 110 -610 262 -1258 480 -325 110 -434 151 -563 214 -329 161 -448
294 -486 541 -13 85 -6 219 16 304 47 181 193 340 411 450 142 71 291 102 535
113 303 13 536 -43 868 -207 199 -100 307 -176 455 -324 l119 -118 32 33 c18
19 279 296 580 617 542 578 547 584 528 604 -31 36 -229 195 -326 262 -490
341 -1133 573 -1775 641 -150 16 -575 18 -727 4z"/>
</g>
</svg>
